<?xml version="1.0" encoding="UTF-8" ?>
<!DOCTYPE svg PUBLIC "-//W3C//DTD SVG 1.1//EN" "http://www.w3.org/Graphics/SVG/1.1/DTD/svg11.dtd">
<svg width="200pt" height="200pt" viewBox="0 0 200 200" version="1.1" xmlns="http://www.w3.org/2000/svg">
<g id="#000000ff">
<path fill="#000000" opacity="1.00" d=" M 198.46 3.10 C 198.85 3.27 199.62 3.62 200.00 3.79 L 200.00 22.65 C 198.81 40.84 194.94 58.90 187.76 75.70 C 173.70 109.16 148.20 138.14 115.66 154.58 C 97.91 163.65 78.08 168.46 58.16 168.72 C 58.15 179.03 58.23 189.34 58.12 199.65 C 38.52 179.88 19.44 159.55 0.00 139.61 L 0.00 139.61 C 18.22 120.62 36.54 101.72 54.77 82.74 C 55.82 81.62 56.88 80.50 58.12 79.58 C 58.21 89.81 58.19 100.05 58.13 110.28 C 95.10 110.65 131.80 95.85 159.05 70.99 C 178.58 53.08 193.94 29.50 198.46 3.10 Z" />
</g>
</svg>
